<svg xmlns="http://www.w3.org/2000/svg" viewBox="0 0 50 50" fill="none">
  <!-- Background circle -->
  <circle cx="25" cy="25" r="24" fill="#1a1a1a"/>

  <!-- Top red arc -->
  <path d="M8 25 A17 17 0 0 1 25 8" stroke="#C41E24" stroke-width="3" fill="none" stroke-linecap="round"/>
  <path d="M42 25 A17 17 0 0 0 25 8" stroke="#C41E24" stroke-width="3" fill="none" stroke-linecap="round"/>

  <!-- Bottom grey arc -->
  <path d="M12 33 A16 16 0 0 0 38 33" stroke="#555" stroke-width="2" fill="none" stroke-linecap="round"/>

  <!-- Shield -->
  <path d="M19 22 L25 17 L31 22 L31 28 Q31 32 25 34 Q19 32 19 28 Z" fill="#222" stroke="#555" stroke-width="0.5"/>

  <!-- Flame -->
  <path d="M25 20 Q28 23 27 25.5 Q29 23.5 28 21 Q30 24.5 28 27.5 Q27 29.5 25 30.5 Q23 29.5 22 27.5 Q20 24.5 22 21 Q21 23.5 23 25.5 Q22 23 25 20Z" fill="#C41E24"/>
  <path d="M25 23 Q26.5 25 26 27 Q25.5 29 25 29.5 Q24.5 29 24 27 Q23.5 25 25 23Z" fill="#E8842C"/>

  <!-- RFC text at bottom -->
  <text x="25" y="45" font-family="Arial, Helvetica, sans-serif" font-size="7" font-weight="900" fill="#CCCCCC" text-anchor="middle" letter-spacing="2">RFC</text>
</svg>
