<svg xmlns="http://www.w3.org/2000/svg" viewBox="0 0 200 200" fill="none">
  <!-- Arc rouge gauche -->
  <path d="M15 100 A85 85 0 0 1 91 17" stroke="#C41E24" stroke-width="9" fill="none" stroke-linecap="round"/>
  <!-- Arc rouge droite -->
  <path d="M185 100 A85 85 0 0 0 109 17" stroke="#C41E24" stroke-width="9" fill="none" stroke-linecap="round"/>
  <!-- Arc gris bas -->
  <path d="M15 100 A85 85 0 0 0 185 100" stroke="#888888" stroke-width="6" fill="none" stroke-linecap="round"/>
  <!-- RFC -->
  <text x="100" y="100" font-family="Arial, Helvetica, sans-serif" font-size="50" font-weight="900" fill="#111111" text-anchor="middle" letter-spacing="4">RFC</text>
  <!-- RESCUE FORMATION CONSEIL -->
  <text x="100" y="116" font-family="Arial, Helvetica, sans-serif" font-size="10.5" font-weight="800" fill="#111111" text-anchor="middle" letter-spacing="0.5">RESCUE FORMATION CONSEIL</text>
  <!-- SECURITE · INCENDIE · PREVENTION -->
  <text x="100" y="129" font-family="Arial, Helvetica, sans-serif" font-size="7" font-weight="500" fill="#555555" text-anchor="middle" letter-spacing="0.8">SECURITE · INCENDIE · PREVENTION</text>
  <!-- Losange -->
  <path d="M100 145 L114 159 L100 173 L86 159 Z" fill="#1a1a1a"/>
  <!-- Flamme rouge -->
  <path d="M100 148 Q104 152.5 102.5 156 Q106 153.5 104.5 150.5 Q107.5 155 105 159.5 Q103 162.5 100 164 Q97 162.5 95 159.5 Q92.5 155 95.5 150.5 Q94 153.5 97.5 156 Q96 152.5 100 148Z" fill="#C41E24"/>
  <!-- Flamme orange -->
  <path d="M100 153 Q101.5 156 101 158.5 Q100.5 161 100 161.5 Q99.5 161 99 158.5 Q98.5 156 100 153Z" fill="#E8842C"/>
</svg>
